<?xml version="1.0" encoding="utf-8"?>
<!-- Generator: Adobe Illustrator 23.0.1, SVG Export Plug-In . SVG Version: 6.00 Build 0)  -->
<svg version="1.1" id="Layer_1" xmlns="http://www.w3.org/2000/svg" xmlns:xlink="http://www.w3.org/1999/xlink" x="0px" y="0px"
	 viewBox="0 0 590 157.6" style="enable-background:new 0 0 590 157.6;" xml:space="preserve">
<style type="text/css">
	.st0{display:none;fill:#FFFFFF;}
</style>
<title>personaclix_pcdh_logo_dark</title>
<g>
	<g id="Layer_1-2">
		<path class="st0" d="M0,157.6V0h590v157.6H0z M72.4,27c-0.4-0.3-0.6-0.8-1.2-0.7c-4.8,0.4-9.5-0.6-14.3,0.6
			c-2.4,0.6-4.9,0.8-7.1,1.8s-4.6,1.5-6.8,2.7c-3.1,1.8-5.9,3.9-8.8,5.9c-5,3.5-8.4,8.3-11.6,13.2c-1.7,2.5-3.1,5.2-4.1,8
			c-1.9,4.7-3.1,9.7-3.4,14.7c-0.1,1.2,0.2,2.3-0.5,3.6c-0.8,1.5-0.8,3.2,0,4.6c1.3,1.9,0.3,3.5-0.5,4.6c-3.5,4.7-6.3,9.8-8.4,15.3
			c-2.3,5.9-4.4,11.8-4.1,18.2c0.1,1,0,2,0,3c-0.2,4.4,1.1,8.8,3.7,12.4c1.1,1.7,2.8,2.6,4.1,3.9c3.1,2.9,7,3.9,10.9,4.4
			c5.5,0.8,10.5-0.1,17.1-2.2c6.8-2,13.3-4.9,19.3-8.8c1.1-0.7,2.4-1,3.7-1c4.4-0.1,8.8,0.2,13.2-0.5c4.6-0.8,9.1-2.2,13.3-4.1
			c3.4-1.5,6.4-4,9.5-6.2c4.2-2.8,7.2-6.7,10.1-10.5c3-4,5.3-8.5,6.8-13.3c1.7-5.4,2.8-11.1,3.2-16.8c0.1-1.2,0.1-2.5,0-3.8
			c-0.1-1.4,0.2-2.9,1-4.1c1.3-2.4,2.9-4.6,3.9-7c1.9-4.5,4.1-8.8,5.3-13.5c1.2-4.3,2.6-8.6,2.5-13.2c0-1.8-0.1-3.5,0-5.3
			c0.1-3.8-1-7.6-3.1-10.7c-1.5-2.5-3.7-4.6-6.4-5.9c-2.8-1.3-12.6-2.3-15.5-1.5c-2.5,0.8-5.1,0.9-7.7,1.4c-1.5,0.3-2.9,0.8-4.4,1.2
			C85.1,19.7,78.7,23.1,72.4,27z M148.8,45.9v68.3c2.1-0.1,4,0.1,5.9-0.1V89.3c0.9,0.4,1.7,0.5,2.1,1c2,2.8,5.3,3.1,8.1,4.1
			c2,0.6,4.2,0.6,6.2-0.1c4.2-1.3,8.1-3.1,11.2-6.5c3.7-4.2,5.9-9.5,6.2-15.1c0.2-2.1-0.1-4.3,0-6.4c0.1-3.1-0.4-6.2-1.6-9.1
			c-1.1-3.4-3.2-6.5-6-8.8c-1.9-1.6-4-2.2-6.4-2.8c-5.7-1.4-11.8-0.3-16.5,3.2c-1,0.7-2.2,1.3-3.4,1.7v-4.7H148.8z M235.8,71.3
			c-0.3-5.3,0.7-10.5-1.5-15.5c-1.6-3.9-4.5-7.1-8.2-9.1c-3.5-1.5-7.3-2-11-1.5c-1.8,0.2-3.6,0.8-5.3,1.6c-3.8,1.8-7,4.7-9.1,8.4
			c-1.8,3.1-3.3,6.5-3.2,10.3c0.1,0.8-0.1,1.7-0.5,2.4c-0.6,1.2-0.6,2.7,0,3.9c0.4,0.7,0.6,1.6,0.5,2.4c-0.3,1.7,0.4,3.1,0.8,4.6
			c1,3.7,2.9,7,5.5,9.7c3.8,3.9,8.7,5.5,13.9,6.2c1.4,0.2,2.7,0,4.1,0c1.2-0.1,2.3-0.4,3.4-0.9c3.2-1.1,6.6-2,9-4.7l-2.6-4.1
			c-1.8,1.6-4,2.7-6.4,3.3c-2.2,0.6-4.3,1.6-6.6,1.2s-4.6-0.6-6.4-1.6c-2.9-1.5-5.2-3.9-6.6-6.9c-1.5-3.1-2.6-6-1.9-9.6L235.8,71.3z
			 M443.8,63.3c-1.4-0.6-2.2,0.5-3,0.4c-3.1-0.2-5.9,0.9-8.8,1.5c-4.1,0.8-8.1,2.3-11.6,4.5c-2.8,1.8-4.9,4.6-5.9,7.8
			c-0.2,1.3-0.3,2.7-0.1,4.1c0,3.1,0.7,5.9,3.1,8.1c0.6,0.6,0.3,1.4,1,1.8c0.7-0.3,1,0.4,1.5,0.7c5.8,3.2,11.5,2.8,17.2-0.1
			c2.1-1.1,4-2.4,6-3.6c0.8,1.2,1.2,2.7,1.1,4.3h5.2c0-6.2,0.1-12.2,0-18.2S450,63,449,57s-5.5-11.3-11.8-12
			c-4.1-0.5-8.3,0-12.1,1.5c-3.4,1.2-6.5,3.1-9.2,5.5c2.4,0.4,1.8,3,3.8,3.5c5.1-3.5,10.5-6.1,16.5-5.2
			C442.2,52.6,443.6,57.3,443.8,63.3z M353.5,61.3c-0.5-1-1.3-1.8-1.4-2.6c-0.1-1.7-1.3-2.7-2-4.1c-0.9-1.7-2.3-2.8-3.6-4.1
			c-4.7-5-10.8-5.7-17.3-5.4c-0.8,1.5-2.4,0.6-3.7,1.1c-5.4,2.3-9,6.3-11.7,11.2c-1.6,2.8-1.7,6.1-2.3,9.2
			c-0.6,3.8-0.3,7.6,0.9,11.2c1.2,4.5,3.6,8.6,7,11.7c3.3,2.9,7.4,4.7,11.8,5c4.7,0.5,9.3-0.8,13.1-3.6c3.5-2.5,6.2-6,7.7-10
			c0.6-1.8,1.1-3.6,1.6-5.4c0.3-1.9,0.6-3.8,0.7-5.7C354.7,66.8,353.5,64,353.5,61.3L353.5,61.3z M366.5,45.9V93h5.8V58.3
			c1.7-1.7,3.4-3.3,5.4-4.7c2.8-2.2,6.3-3.4,9.9-3.3c1.2,0,2.1,1.3,3.1,0.8c4,2.9,5.2,6.7,5.1,11.3c-0.2,9.1,0,18.3,0,27.4V93h6
			v-2.7c0-10,0-20,0-30c-0.1-2.2-0.6-4.5-1.3-6.6c-0.2-1.1-0.6-2.2-1.2-3.3c-3.3-4.8-10.6-6.9-16.3-5.1c-3.9,1.2-7.4,3.4-10.1,6.4
			c-0.6-0.5-0.2-1.5-1.2-1.9v-4L366.5,45.9z M304.8,77.1c-1-1.4-1.5-3.1-2.6-4.4c-2.4-2.7-5.6-4-8.8-5.1c-3.6-1.4-7.1-2.9-10.5-4.6
			c-1.6-0.9-2.8-2.3-3.5-4c-0.7-1.4,0.3-2.5,0.6-3.8c0.1-0.2,0.1-0.5,0.1-0.8c3.3-4.5,7.7-4.6,12.1-4.2l7.5,3.8
			c1.5-1.2,2.5-2.8,3-4.6c-1.2,0.4-1.7-0.4-2.3-1c-0.8-0.7-2-0.9-2.6-1.8c-0.1-0.2-0.7-0.1-1-0.2c-3-1.3-6.2-1.8-9.5-1.4
			c-4.9,0.2-9.3,2-12.1,6c-2.4,3.1-2.9,7.3-1.2,10.9c1.1,2.4,3,4.1,5.1,5.7c2.5,2,5.7,2.6,8.6,3.7c4.4,1.7,8.9,3.3,11,7.9v4.3
			c-2,4.3-5.5,5.6-9.7,5.8c-2.1,0.1-4-0.7-5.9-1.2c-1.8-0.5-3.5-1.3-5-2.5c-1.1-0.8-2.2-2.2-3.6-2.3c-1.8,1-1.9,3-3.4,4
			c2.4,2.6,5.3,4,8.2,5.2c4.8,2,9.9,2.9,15,1.2c3.4-1.1,6.8-2.5,8.7-6c0.6-1.1,0.8-2.5,1.8-3.4L304.8,77.1z M270.2,45.9
			c-0.6,0-1.3-0.1-1.9-0.2c-3.8-1.3-6.8-0.7-10.2,1.2c-2.2,1.3-3.5,3.5-5.8,4.9c-0.4-2.1,0.2-4.1-0.4-6h-4.7l-1,1v46.1h6.7V63.2
			c0-0.9-0.3-1.9,0-2.6c2.1-4.1,4.1-8.4,9.2-9.5c1-0.2,2-1.6,3-0.8c1.4,1.2,2.8,0.4,4.5,0.8C269,49.2,270.4,47.9,270.2,45.9z
			 M558,72.6c3.1,6.8,5.6,13.6,8.2,20.4c1.3,0,2.5,0.3,3.9-0.3l-9.4-22.5l18.9-22h-4.3c-5.5,6-10.5,12.7-16.5,18.8l-7.8-18.9
			c-1.4-0.2-2.8-0.1-4.2,0.2c1.4,2.4,2.6,5,3.5,7.7c1.4,3.8,3.4,7.3,4.6,11.2c0.3,0.9,0.4,1.9,0.4,2.8c-4.1,4.5-7.9,9-11.8,13.3
			c-2.8,3.1-5.2,6.5-8.6,9.5h4.6c1-0.8,1.8-1.7,2.7-2.7c3-4,6.3-7.8,9.8-11.3c0.5-0.5,0.9-1.1,1.3-1.7
			C554.5,75.4,556.1,73.8,558,72.6z M487.6,86.4c-4.2,4.4-9.6,4.9-15.3,4.5c-0.2,0-0.4-0.1-0.6-0.2c-5.2-2.5-7.1-4.9-7.7-10.6
			c0.1-0.7-0.1-1.4-0.4-2.1c-0.7-1.2-0.8-2.6-0.2-3.9c0.8-1.3,0.4-2.4,0.6-3.5c0.1-0.6-0.1-1.3,0.1-1.8c1.4-2.9,2.8-5.9,4.2-8.8
			c1.2-2.1,2.8-4,4.7-5.5c2.1-2.1,4.8-3.5,7.7-4.1c5.8-0.9,7.5-0.2,11.8,4.1c0.2,0.2,0.4,0.3,0.1-0.2l2.5-2.5
			c-3-3.5-7.5-5.5-12.2-5.2c-2.4,0.2-4.8,0.9-7,2c-5.1,2.6-7.5,4.5-11.2,10.2c-0.8,1.2-1.9,2.2-2.2,3.6c-0.8,3.1-2.9,5.8-2.3,9.2
			c-1.6,2.4-0.8,5.1-0.6,7.6c0.2,3.2,1.2,6.2,2.9,8.9c1.2,1.8,2.9,3.3,4.7,4.4c4.8,2.7,9.7,2.8,14.8,1c1.3-0.4,2.8-0.6,3.8-1.6
			s2.5-1.3,3.7-2.1v-1.5C488.8,87.6,488.2,87,487.6,86.4L487.6,86.4z M513.6,24.8c-0.1,2.9-1.2,5.6-1.5,8.4
			c-0.4,3.3-2.2,6.4-1.6,9.9c-1.4,1.1-0.1,3-1,4c-1.2,1.3,0.4,3.3-1.2,4.4c0,1.4-0.5,2.8-0.6,4.2c-0.1,1.9-1.4,3.7-0.9,5.7
			c-1.5,1.5,0,3.9-1.5,5.4c0.5,1.7-0.9,3-0.7,4.6s-1,2.7-0.8,4.2s-1.3,2.9-0.8,4.5c-1.3,1.4-0.5,3.4-1.2,5.1c-0.5,1.6-0.9,3.2-1,4.8
			c-0.3,2.2,1.4,3.4,2.5,4.5h3.8c1.7-1.1,1.2-2.4,1-3.6c-1.1-0.1-2,0.2-2.9-0.3c0-1.4-0.4-3,0.1-4.4c0.8-2.3,1-4.6,1.5-6.9
			c0.5-1.5,0.7-3,0.7-4.6c1.6-1.3-0.1-3.7,1.5-5c-0.5-1.9,0.7-3.5,0.9-5.3c0-1.8,0.3-3.6,0.8-5.3c1.8-5.1,2.1-10.5,3.5-15.8
			c0.5-2.1,0.8-4.4,1.3-6.6s0.4-4.6,1.2-6.6c0.7-1.8,0.5-3.5,0.7-5.3L513.6,24.8z M531.5,48.1c-1.5,2.6-1.4,5.8-2.1,8.7
			s-1.3,6-1.7,9.1c-0.3,3-0.9,6.1-1.8,9c-0.8,2.9-1.4,6-1.8,9c-0.5,3-2.2,5.8-1.5,9.2c1.2-0.2,2.4,0.2,3.6-0.3
			c-0.1-0.6-0.1-1.3,0-1.9c0.7-2.3,1.2-4.6,1.6-6.9c0.3-1.6,0.1-3.2,0.7-4.6c1.3-3.2,1.3-6.7,2.2-10c0.8-2.9,1.6-5.7,1.5-8.7
			c1.9-4,1.3-8.5,3.2-12.6L531.5,48.1z M351.4,102.9V120h8.9c2.7-1,4.1-2.6,4.5-4.9c-0.4-2-1.8-3.2-3-4.4l1.4-1.4v-3.7
			c-0.9-1.5-2.3-2-3.4-2.7L351.4,102.9z M565.3,113c0.5-0.9,1.5-1.4,2.6-1.2l2.5-2.5v-5l-2.5-1.4h-10c-0.9,5.8-2.9,11.2-3.2,17.1h2
			c0.7-1,0-2.1,0.8-3.2c0.5-0.7,0.3-2.1,0.4-3.2c0.3-0.3,0.7-0.7,1-1h3.7c2.4,1.9,3,5,4.5,7.5c0.6-0.1,1.2,0.3,1.9-0.3
			C568.7,117.1,567.4,114.7,565.3,113z M456.7,120c1.8-1.1,4-1.5,4.8-3.3s2.2-3.2,1.7-5.3c2-1.8-0.3-3.6-0.1-5.3
			c-1.3-1.2-2.4-2.7-4-3.2h-7.6c-1.7,5.6-2.5,11.4-3.8,17.1H456.7z M521.1,102.9c-0.9,4.4-2,8.8-2.7,14.2l-6.2-14.3
			c-0.8,0.1-1.7-0.3-2.4,0.2c-0.6,2.9-1.3,5.6-1.6,8.4s-2.3,5.6-1.4,8.6h1.8l2.8-13.8l5.9,13.8h2.5c0.8-5.8,2.7-11.3,3.3-17.1
			L521.1,102.9z M551.7,117.8h-10.3c-0.4-2,1.3-3.3,0.5-5.2h9.5c0.6-0.7,1.3-1,1.1-2.3c-1.5,0-3.1,0-4.6,0c-1.7,0.1-3.3,0.1-5-0.2
			c-0.2-2,1.3-3.3,0.7-5.2h10.7c-0.5-0.8,0.2-1.6-0.4-2h-11.9c-1.2,5.7-2.4,11.3-3.7,17h13.4V117.8z M396.6,103
			c-1,5.8-2.9,11.2-3.3,17.2c2.5,0,4.8,0.1,7,0c2.5-0.1,5-1,6.1-3.1c1.5-2.7,4-5.5,2-9.1c-0.3-0.5,0-1.2,0-1.7
			c-1.4-1.3-2.4-2.7-4.6-3.3L396.6,103z M475.4,102.9c-1.8,5.5-2.3,11.4-4,17c1.8,0.2,1.8,0.2,3-0.7c0-2.5,0.6-5,1.8-7.2
			c1.4,0,2.8,0,4.2,0s2.6,0.1,4,0.1c-0.1,2.9-1.1,5.3-1.5,7.9c1.6,0.1,1.6,0.1,2.8-0.8c0.3-1.4-0.1-2.8,0.7-4.2
			c0.6-1,0.3-2.5,0.7-3.8c0.3-1.1,1-2.2,0.9-3.4c-0.2-1.4,0.5-2.6,0.8-3.8c0.1-0.4,0-0.8-0.3-1c-0.6,0-1.2-0.2-1.6,0.1
			c-1.5,2.3-0.9,5.2-2.9,7.4c-2.5-0.6-5.4,1-7.8-0.9c0.6-2.2,1.1-4.4,1.3-6.6L475.4,102.9z M504,102.9c-0.5,0.7-0.8,1.5-1,2.4
			c-0.3,2.7-0.8,5.4-1.5,8c-0.3,2-1.5,3.8-3.2,4.8c-2,1.3-3.4,0.2-5-0.4c-0.1-1.1-1.4-1.9-0.8-3c0.8-1.6,0.6-3.4,1.2-5.1
			c0.5-2,0.8-4,1-6c0-0.2-0.2-0.4-0.3-0.5h-1.8c-0.3,1.7-0.6,3.4-1.1,5c-0.4,1.7-0.3,3.3-0.6,5c-0.9,4.8-0.9,4.9,2.7,7.2h5.3
			c1.6-0.8,2.9-1.9,4-3.3c1.2-4.7,2.4-9.2,3.2-13.9L504,102.9z M408.9,119.8c1,0.1,1.7,0.8,3-0.4c0.8-0.9,0.9-3.3,2.9-4.3h5.5
			c1.3,1.5,0.5,3.8,2.1,5.2c0.5-0.2,1.2,0.2,1.7-0.3c0.2-0.5,0-1.1-0.5-1.4c-0.6-5.2-1.5-10.5-2.6-15.6c-1,0.1-1.9-0.2-2.4,0.1
			C415.3,108.7,412.1,114.2,408.9,119.8L408.9,119.8z M426.9,103c1.1,5.9,1.8,11.6,3.3,17.2h2.7c0.2-0.5,0.3-0.9,0.6-1.3
			c2.8-5.1,5.6-10.2,8.5-15.2c0.1-0.3,0.3-0.4-0.1-0.6h-2.5c-2,5-5,9.4-7.5,14.4c-1-5-1.9-9.7-2.8-14.4H426.9z M531,105
			c-1,5.3-2,10.2-3,15h2.6c0.1-4.9,2.2-9.3,2.5-13.9l1-1h5.3c-1.8-1.3,0.8-1.2,0-2.2h-13c-0.4,0.6-1.3,0.9-0.8,2L531,105z
			 M374.6,113.1c0.4-0.4,0.8-0.8,1.2-1.2c1.6-2.9,3.5-5.6,5.6-8.1c0.1-0.1-0.1-0.4-0.1-0.7c-0.6-0.4-1.2-0.2-1.8-0.2
			c-2.3,2.2-3.4,5.3-5.7,7.6c-2-2.6-3.2-5.6-5.5-7.7c-0.7,0.1-1.4-0.2-2,0.6l6.3,9.4v7.2c0.7,0.2,1.4,0.1,2-0.2L374.6,113.1z
			 M443.5,120.1c0.4-2.9,1.3-5.7,1.9-8.5s0.6-5.8,2.3-8.4c-1-0.4-2.2-0.5-3.3-0.2c0.7,2.1-0.5,3.9-0.7,6c-0.4,2.8-1,5.5-1.9,8.1
			c-0.2,0.8-0.3,1.7-0.3,2.5c0,0.2,0.3,0.3,0.4,0.5L443.5,120.1z M537.4,36.5c1.1-1.1,2.4-2.2,2.4-4.4c-0.5-0.6-0.9-1.4-1-2.1
			c-1.1,0.7-1.4-1.2-2.6-0.7l-2.2,1l-1.7,3.5c1.4,0.3,0.2,1.6,0.9,2.2C534.4,36.2,535.5,37.3,537.4,36.5L537.4,36.5z"/>
		<path d="M72.4,27c6.3-3.9,12.7-7.3,19.8-9.3c1.5-0.4,2.9-0.9,4.4-1.2c2.5-0.6,5.1-0.7,7.7-1.4c2.8-0.9,12.7,0.1,15.5,1.5
			c2.6,1.3,4.9,3.4,6.4,5.9c2.1,3.2,3.2,6.9,3.1,10.7c-0.1,1.7,0,3.5,0,5.3c0.1,4.6-1.3,8.9-2.5,13.2c-1.3,4.7-3.5,9.1-5.3,13.5
			c-1,2.4-2.6,4.7-3.9,7c-0.8,1.2-1.1,2.6-1,4.1c0.1,1.2,0.1,2.5,0,3.8c-0.4,5.7-1.5,11.3-3.2,16.7c-1.5,4.8-3.8,9.3-6.8,13.3
			c-3,3.8-6,7.6-10.1,10.5c-3.1,2.2-6,4.7-9.5,6.2c-4.2,1.9-8.7,3.3-13.3,4.1c-4.4,0.7-8.8,0.4-13.2,0.5c-1.3,0-2.6,0.3-3.7,1
			c-6,3.8-12.5,6.8-19.3,8.8c-6.6,2-11.6,2.9-17.1,2.2c-3.9-0.6-7.8-1.5-10.9-4.4c-1.4-1.3-3-2.2-4.1-3.9c-2.6-3.6-3.9-7.9-3.7-12.3
			c0-1,0-2,0-3c-0.3-6.4,1.8-12.3,4.1-18.2C7.7,96,10.5,90.8,14,86.1c0.9-1.2,1.9-2.7,0.5-4.6c-0.8-1.5-0.8-3.2,0-4.6
			c0.7-1.3,0.4-2.4,0.5-3.6c0.4-5.1,1.5-10,3.4-14.7c1.1-2.8,2.5-5.5,4.1-8c3.2-4.9,6.6-9.7,11.6-13.2c2.9-2,5.7-4.2,8.8-5.9
			c2.2-1.2,4.5-1.7,6.8-2.7s4.8-1.2,7.1-1.8c4.8-1.3,9.6-0.2,14.4-0.6C71.9,26.2,72.1,26.7,72.4,27z M41.8,118
			c28-13.5,49.2-33.9,61.6-63c-1.3-2.6-3-4.9-4.9-7.1c-3.8-4.4-8.4-8-13.6-10.6c-2.3-1.3-5-1.8-7.3-3c-2.7-1.4-5.7-0.7-8.2-2
			c-5.1-0.3-10.2,0.2-15.1,1.5c-5.7,1.7-11.1,4.3-15.9,7.9c-4.5,3.2-10.2,10.6-12.8,16c-1.5,3-2.9,6.1-3.1,9.6
			c-2.7,4.8-0.5,10.2-2,15.1c1.4,1.6-0.3,3.9,1.3,5.5c0.7,4.6,2.2,9.1,4.5,13.2c0.7,1.4,1.8,2.5,2.3,3.9c1.3,3.3,4.5,5.3,6.2,8.3
			C37.3,114.2,38.6,116.8,41.8,118z M89,31.6c1-0.4,2.3-0.8,3.4-1.3c2.6-1.2,5.6-0.8,8.3-1.8c2.4,0.9,5.1,0.7,7.3,2.2
			c2.7,1.7,4.8,4.1,5.2,7c0.5,4.1,0.7,8.4-0.8,12.3c-2.2,5.7-3.9,11.6-7.2,16.9c-3.2,5-6,10.3-9.6,15.2c-2.8,3.9-5.8,7.7-9.1,11.2
			c-3.2,3.4-6.6,6.7-10.2,9.7c-2.7,1.9-5.2,4.1-7.5,6.5c-0.9,1.1-2.5,1.4-3.4,2.7c-0.2,0.3-0.7,0.3-0.9,0.5c-4.5,3-9.1,5.7-13.8,8.4
			c-3.7,2.1-7.7,3.2-11.4,5.1c-2.3,1.2-4.9,1.4-7.4,2.1c-3.1,0.7-6.3,0.1-9-1.5c-1.8-1.1-3.2-2.7-4.2-4.5c-1.2-2.2-1.9-4.5-2.2-7
			c-0.4-3.5,1.1-6.8,1.9-10.1c0.4-1.2,0.4-2.6-0.1-3.8c-0.9-2.2-1.5-4.4-2.2-6.7c-0.3,0.3-0.7,0.4-0.8,0.7c-1.6,4-4.2,7.4-5.2,11.8
			c-1,4-1.8,8-2.7,12c-0.6,2.8,0.2,5.6,0.9,8.3c0.5,2.6,2,5,4.2,6.5c4.1,2.7,9,3.9,13.9,3.4c0.8-0.1,1.7-0.7,2.7-0.6
			c1.8,0.1,3.5-0.6,5.2-1.1c5.9-1.8,11.5-4.2,16.9-7.2c5.5-2.9,10.8-6.3,15.7-10.1c1.5-1.2,3.1-2.5,4.8-3.6c1.7-1.2,3.3-2.4,4.8-3.8
			c1.5-1.3,2.7-2.9,4.1-4.3c1.9-1.9,3.9-3.7,6-5.4c2-1.5,3.4-3.8,5.2-5.7c4-4.3,7.8-8.9,11.4-13.7c4.4-6.1,8.5-12.4,12.1-19
			c0.8-1.5,1.1-3.3,1.9-4.8c3.3-5.8,4.4-12.3,5.6-18.7c0.6-3.5,0.4-7.1-0.6-10.5c-0.8-3.3-3.2-5.9-6.5-6.8c-1.5-0.4-3.3-0.6-4.9-0.9
			c-3.3-0.5-6.6,0.5-9.8,0.9c-3.7,0.5-7.3,1.4-10.8,2.8c-2.7,1.2-5.7,1.9-8.2,4.5C85.1,29.1,86.7,31,89,31.6z M108.9,86.4
			c-1,0.1-0.6,0.8-0.9,1.1c-3.2,3.7-6.1,7.6-9.6,11c-5.4,5.4-10.5,11.2-16.5,16c-2,1.6-4,3.2-5.9,4.8c-1.6,1.3-2.9,2.9-4.8,3.8
			c-0.8,0.4-0.8,0.7-0.5,1.6c5.9-0.1,11-2.7,16-5.3c8.3-4.4,14.1-11.4,18.2-19.6C107,95.6,108.8,91.2,108.9,86.4z M106.2,47.4
			c0.9-0.9-0.1-2.1,0.6-2.8c1.1-1.2,0.7-2.8,0.4-3.9c-0.5-1.7-0.6-3.8-2.8-4.6c-2.9-1-5.7-1.2-8.7,0.8
			C100.2,39.5,102.9,43.7,106.2,47.4z M27.5,121.5h5.4c0.2-0.5,0.9-0.6,0.8-1.2c-1.8-1.8-3.5-3.5-5.3-5.3s-2.6-4-5.2-6.1
			c0.5,2.3-0.5,3.6-0.6,5.1s1.3,2.8,0.8,4.2C24.4,119.6,25.8,120.8,27.5,121.5z"/>
		<path d="M148.8,45.9h5.9v4.6c1.2-0.4,2.3-0.9,3.4-1.7c4.8-3.4,10.8-4.6,16.5-3.2c2.4,0.6,4.5,1.2,6.4,2.8c2.8,2.3,4.9,5.4,6,8.8
			c1.1,2.9,1.6,6,1.6,9.1c-0.1,2.1,0.1,4.3,0,6.4c-0.3,5.6-2.5,10.9-6.2,15.1c-3.1,3.4-7,5.2-11.2,6.5c-2,0.7-4.2,0.7-6.2,0.1
			c-2.8-1-6.1-1.3-8.1-4.1c-0.3-0.5-1.2-0.6-2.1-1V114c-1.9,0.2-3.8,0-5.9,0.1L148.8,45.9z M154.7,82.9c1.2,1.7,2.9,3.1,4.8,4
			c2.2,1.2,4.8,1.7,7.2,2.4c1.1,0.3,2.1-0.6,3.1-0.7c4-0.3,7.9-4,10-7.5c1.8-3,2.2-6.4,2.6-9.8c0.2-1.6-0.2-3.3,0.1-4.9
			s-0.8-3-0.9-4.6c-0.2-4.6-3.6-9.4-7.8-10.8c-3.6-1.2-7.2-1.4-10.7,0.7c-2.3,1.4-5,2.3-6.7,4.7c-0.5,0.7-1.5,0.3-1.8,1L154.7,82.9z
			"/>
		<path d="M235.8,71.3h-32.1c-0.7,3.6,0.5,6.5,1.9,9.6c1.4,2.9,3.7,5.3,6.6,6.9c1.9,1,4.3,1.2,6.4,1.6s4.5-0.6,6.6-1.2
			c2.4-0.5,4.6-1.6,6.4-3.3l2.6,4.1c-2.4,2.7-5.8,3.7-9,4.7c-1.1,0.5-2.2,0.8-3.4,0.9c-1.4,0-2.8,0.1-4.1,0
			c-5.3-0.6-10.2-2.3-13.9-6.2c-2.7-2.7-4.6-6-5.5-9.7c-0.4-1.5-1.1-2.9-0.8-4.6c0.1-0.8-0.1-1.7-0.5-2.4c-0.6-1.2-0.6-2.7,0-3.9
			c0.4-0.7,0.6-1.6,0.5-2.4c-0.1-3.8,1.4-7.2,3.2-10.3c2.1-3.7,5.3-6.6,9.1-8.4c1.7-0.8,3.5-1.3,5.3-1.6c3.7-0.5,7.5,0,11,1.5
			c3.7,2,6.6,5.2,8.2,9.1C236.5,60.7,235.5,66,235.8,71.3z M220.9,50.4c-3.3-0.5-6.7,0-9.6,1.5c-2,1.1-5.4,5.1-6.3,7.4
			s-2.1,4.3-1.4,6.6H231c-1.6-1.4-1.2-2.9-1.3-4.3c-0.1-2.6-1.1-5.1-2.9-7C225.1,52.7,223.1,51.3,220.9,50.4z"/>
		<path d="M443.8,63.3c-0.2-6-1.5-10.7-7.6-13c-6-0.8-11.4,1.7-16.5,5.2c-2-0.5-1.3-3.1-3.8-3.5c2.7-2.4,5.8-4.3,9.2-5.5
			c3.8-1.5,8-2,12.1-1.5c6.3,0.7,10.9,5.9,11.8,12s0.4,11.8,0.6,17.7s0,12,0,18.2h-5.2c0.1-1.5-0.3-3-1.1-4.3c-2,1.2-3.9,2.5-6,3.6
			c-5.7,2.9-11.5,3.3-17.2,0.1c-0.5-0.3-0.8-1-1.5-0.7c-0.7-0.4-0.4-1.3-1-1.8c-2.4-2.1-3.1-5-3.1-8.1c-0.1-1.4-0.1-2.7,0.1-4.1
			c0.9-3.2,3-6,5.9-7.8c3.6-2.2,7.5-3.8,11.7-4.5c2.9-0.7,5.7-1.7,8.8-1.5C441.6,63.8,442.4,62.7,443.8,63.3z M443.7,68.6
			c-2.3-0.8-4.2,0.2-6.2,0.5c-3.3,0.6-6.6,1.5-9.7,2.7c-2.8,1-4.5,3.2-6.5,5c-0.8,4.3-0.8,4.3,0.1,8.6c4.6,4.9,8.8,4.4,13.2,2.7
			c3.4-1.4,6.4-3.4,9.1-5.9V68.6z"/>
		<path d="M353.5,61.3c0,2.7,1.3,5.5,0.9,8.5c-0.1,1.9-0.3,3.8-0.7,5.7c-0.4,1.8-0.9,3.6-1.6,5.4c-1.5,4-4.2,7.5-7.7,10
			c-3.8,2.8-8.4,4.1-13.1,3.6c-4.4-0.3-8.5-2.1-11.8-5c-3.4-3.2-5.8-7.2-7-11.7c-1.1-3.6-1.4-7.5-0.9-11.2c0.6-3.1,0.7-6.4,2.3-9.2
			c2.8-4.9,6.3-8.9,11.7-11.2c1.2-0.5,2.8,0.4,3.7-1.1c6.4-0.3,12.5,0.4,17.3,5.4c1.2,1.3,2.7,2.4,3.6,4.1c0.7,1.3,1.9,2.4,2,4.1
			C352.2,59.5,353,60.3,353.5,61.3z M318.3,62.7c-0.1,1.6-0.3,3.3-0.6,4.9c-0.6,2,0.1,4.3,0.5,6.4c0.6,4.4,2.6,8.4,5.7,11.5
			c3.8,3.7,9.3,4.4,14.3,2.3c3.1-1.3,5.7-3.7,7.1-6.7c1.2-2.4,2.5-4.8,2.3-7.7c1.8-3.6,0.5-7-0.4-10.5c-0.4-1.9-1.2-3.8-2.3-5.5
			c-1.5-2.2-3.6-3.7-5.1-5.7c-0.7-0.1-1.4-0.3-2.1-0.5c-2.6-1.1-5.6-1.3-8.3-0.6c-3.9,0.8-5.8,3.6-8.1,6.3
			C319.9,58.7,319.8,61,318.3,62.7z"/>
		<path d="M366.5,45.9h5v4c1,0.4,0.6,1.4,1.2,1.9c2.7-3,6.2-5.2,10.1-6.4c5.7-1.8,13,0.3,16.3,5.1c0.6,1,1,2.1,1.2,3.3
			c0.8,2.1,1.2,4.3,1.3,6.6c0,10,0,20,0,30V93h-6v-3.2c0-9.1-0.1-18.3,0-27.4c0.1-4.5-1-8.4-5.1-11.3c-1,0.5-1.8-0.8-3.1-0.8
			c-3.6,0-7.1,1.1-9.9,3.3c-1.9,1.4-3.7,3-5.4,4.7V93h-5.8L366.5,45.9z"/>
		<path d="M304.8,77.1v7.3c-1,0.9-1.2,2.3-1.8,3.4c-1.9,3.4-5.3,4.8-8.7,6c-5.1,1.7-10.2,0.8-15-1.2c-2.9-1.2-5.9-2.6-8.2-5.2
			c1.5-1,1.6-3,3.4-4c1.5,0.1,2.5,1.5,3.6,2.3c1.5,1.1,3.2,2,5,2.5c1.9,0.5,3.8,1.2,5.9,1.2c4.2-0.2,7.7-1.5,9.7-5.8v-4.3
			c-2.1-4.6-6.6-6.2-11-7.9c-2.9-1.1-6-1.7-8.6-3.7c-2-1.6-4-3.3-5.1-5.7c-1.6-3.6-1.2-7.7,1.2-10.8c2.8-4.1,7.1-5.8,12.1-6
			c3.2-0.3,6.5,0.2,9.5,1.5c0.3,0.2,0.9,0,1,0.2c0.7,0.9,1.8,1.1,2.6,1.8c0.6,0.5,1.1,1.3,2.3,1c-0.5,1.8-1.5,3.4-3,4.6l-7.5-3.8
			c-4.4-0.4-8.9-0.3-12.1,4.2c0,0.3,0,0.5-0.1,0.8c-0.3,1.2-1.3,2.4-0.6,3.8c0.7,1.7,1.9,3.1,3.5,4c3.4,1.7,6.9,3.2,10.5,4.6
			c3.2,1.2,6.4,2.4,8.8,5.1C303.3,74,303.7,75.7,304.8,77.1z"/>
		<path d="M270.2,45.9c0.1,1.9-1.3,3.2-0.5,5.3c-1.7-0.5-3.1,0.4-4.5-0.8c-1-0.8-2,0.5-3,0.8c-5.1,1.1-7.1,5.4-9.2,9.5
			c-0.4,0.7,0,1.7,0,2.6v29.7h-6.7V46.8l1-1h4.6c0.6,1.9,0,3.8,0.4,6c2.2-1.4,3.5-3.6,5.8-4.9c3.4-1.9,6.4-2.5,10.2-1.2
			C268.9,45.9,269.6,45.9,270.2,45.9z"/>
		<path d="M558,72.6c-1.9,1.2-3.4,2.7-4.6,4.6c-0.4,0.6-0.9,1.2-1.4,1.7c-3.5,3.5-6.8,7.3-9.8,11.3c-0.8,1-1.7,1.9-2.7,2.7H535
			c3.4-3,5.9-6.4,8.6-9.5c3.9-4.4,7.8-8.8,11.8-13.3c0-1-0.1-1.9-0.4-2.8c-1.2-3.9-3.2-7.4-4.6-11.2c-0.9-2.7-2.1-5.3-3.5-7.7
			c1.4-0.3,2.8-0.4,4.2-0.2l7.8,18.9c6-6.1,11.1-12.7,16.5-18.8h4.3l-18.9,22l9.4,22.5c-1.4,0.6-2.6,0.3-3.9,0.3
			C563.5,86.3,561,79.4,558,72.6z"/>
		<path d="M487.5,86.4c0.7,0.7,1.3,1.3,1.9,1.9v1.5c-1.2,0.8-2.6,1-3.7,2.1s-2.5,1.2-3.8,1.6c-5,1.7-9.9,1.7-14.8-1
			c-1.9-1.1-3.5-2.6-4.7-4.4c-1.8-2.6-2.8-5.7-2.9-8.9c-0.2-2.5-0.9-5.2,0.6-7.6c-0.6-3.4,1.5-6.1,2.3-9.2c0.4-1.4,1.4-2.4,2.2-3.6
			c3.7-5.7,6.1-7.6,11.2-10.2c2.2-1.1,4.6-1.8,7-2c4.6-0.3,9.2,1.6,12.2,5.2l-2.5,2.5c0.2,0.6,0.1,0.5-0.1,0.2
			c-4.3-4.3-6-5-11.8-4.1c-2.9,0.6-5.6,2-7.7,4.1c-1.9,1.5-3.6,3.4-4.8,5.5c-1.5,2.9-2.9,5.8-4.2,8.8c-0.2,0.5,0,1.2-0.1,1.8
			c-0.2,1.2,0.2,2.3-0.6,3.5c-0.6,1.2-0.5,2.7,0.2,3.9c0.3,0.6,0.5,1.4,0.4,2.1c0.6,5.7,2.5,8.1,7.7,10.6c0.2,0.1,0.4,0.2,0.6,0.2
			C477.9,91.3,483.3,90.8,487.5,86.4z"/>
		<path d="M513.6,24.8h3.7c-0.1,1.8,0,3.5-0.7,5.3c-0.8,2.1-0.8,4.4-1.2,6.6s-0.7,4.5-1.3,6.6c-1.3,5.2-1.7,10.6-3.5,15.8
			c-0.5,1.7-0.7,3.5-0.8,5.3c-0.1,1.8-1.3,3.4-0.9,5.3c-1.6,1.3,0.1,3.7-1.5,5c0,1.5-0.2,3.1-0.7,4.6c-0.5,2.3-0.7,4.6-1.5,6.9
			c-0.4,1.3-0.1,2.9-0.1,4.4c0.9,0.6,1.8,0.2,2.9,0.3c0.2,1.3,0.7,2.5-1,3.6h-3.8c-1.2-1.1-2.8-2.3-2.5-4.5c0.1-1.6,0.5-3.3,1-4.8
			c0.7-1.7-0.1-3.7,1.2-5.1c-0.5-1.7,1-3,0.8-4.6s1-2.7,0.8-4.2s1.2-2.9,0.7-4.6c1.5-1.5,0-3.9,1.5-5.4c-0.5-2,0.8-3.7,0.9-5.7
			c0.1-1.3,0.6-2.8,0.6-4.2c1.7-1.1,0.1-3,1.2-4.4c0.9-1.1-0.4-3,1-4c-0.5-3.4,1.3-6.5,1.6-9.8C512.4,30.4,513.5,27.7,513.6,24.8z"
			/>
		<path d="M531.5,48.1h3.9c-1.9,4.1-1.3,8.7-3.2,12.6c0.1,3-0.8,5.9-1.5,8.7c-0.9,3.3-0.8,6.7-2.2,10c-0.6,1.4-0.3,3-0.7,4.6
			c-0.4,2.3-1,4.6-1.6,6.8c-0.1,0.6-0.1,1.3,0,1.9c-1.2,0.6-2.4,0.1-3.6,0.3c-0.8-3.4,1-6.3,1.5-9.2c0.3-3,0.9-6.1,1.8-9
			c0.9-2.9,1.5-6,1.8-9c0.4-3.1,1-6.1,1.7-9.1S530.1,50.8,531.5,48.1z"/>
		<path d="M351.4,102.9h8.4c1.1,0.7,2.5,1.2,3.4,2.7v3.7l-1.4,1.4c1.2,1.3,2.7,2.4,3,4.4c-0.4,2.3-1.9,3.9-4.5,4.9h-8.9L351.4,102.9
			z M361.7,113.7c-2.6-3.2-5.4-0.5-8-1.1v5.2h7.1l0.9-0.9L361.7,113.7z M354.7,110.4c2.1-0.1,4.4,0.4,6.3-1.1v-2.9l-0.9-1.2h-6.5
			v4.1L354.7,110.4z"/>
		<path d="M565.3,113c2.1,1.7,3.4,4.1,3.8,6.7c-0.7,0.6-1.3,0.3-1.9,0.3c-1.5-2.5-2.1-5.6-4.5-7.5h-3.7c-0.3,0.3-0.7,0.7-1,1
			c-0.1,1.1,0.2,2.5-0.4,3.2c-0.8,1,0,2.2-0.8,3.2h-2c0.3-5.8,2.3-11.3,3.2-17.1h10l2.5,1.5v5l-2.5,2.5
			C566.9,111.6,565.8,112.1,565.3,113z M560.3,105.1c-1.1,1.7-0.9,3.5-1.7,5.2h7.6c0.8-0.7,1.4-1.2,2-1.7v-2.3l-1.1-1.1L560.3,105.1
			z"/>
		<path d="M456.7,120h-9c1.3-5.7,2.1-11.5,3.8-17.1h7.6c1.6,0.5,2.7,2,4,3.2c-0.2,1.8,2.1,3.5,0.1,5.3c0.5,2.1-0.9,3.7-1.7,5.3
			S458.5,118.9,456.7,120z M452.8,106.1c-0.1,4-1.8,7.7-2.3,11.7h4.7c2.1,0,3.6-0.6,4.5-2.8c0.3-0.7,0.3-1.7,1.2-2.1v-6l-1.8-1.8
			h-5.5L452.8,106.1z"/>
		<path d="M521.1,102.9h2.2c-0.6,5.8-2.5,11.3-3.3,17.1h-2.6l-5.9-13.8l-2.8,13.8h-1.8c-0.9-3,1.1-5.7,1.4-8.6s1-5.5,1.6-8.4
			c0.7-0.5,1.6-0.1,2.4-0.2l6.2,14.3C519.1,111.8,520.2,107.4,521.1,102.9z"/>
		<path d="M551.7,117.9v2.1h-13.4c1.2-5.7,2.4-11.3,3.7-17h11.9c0.6,0.5-0.1,1.2,0.4,2h-10.7c0.6,1.9-0.9,3.2-0.7,5.2
			c1.7,0.2,3.3,0.3,5,0.2c1.6,0,3.2,0,4.6,0c0.3,1.3-0.5,1.7-1.1,2.3h-9.5c0.8,1.9-0.9,3.2-0.5,5.2L551.7,117.9z"/>
		<path d="M396.6,103h7.2c2.2,0.6,3.3,2,4.6,3.3c0,0.5-0.2,1.2,0,1.7c2,3.6-0.5,6.4-2,9.1c-1.1,2.1-3.6,3-6.1,3.1
			c-2.2,0.1-4.5,0-7,0C393.6,114.2,395.6,108.7,396.6,103z M395.6,117.9c1.1-0.1,2.2-0.1,3.3,0c2.8,0.5,5.6-1,6.7-3.6
			c0.3-0.5,1.5-4.8,1.3-5.1c-1-1.3-0.8-3.4-2.6-4h-5.4l-0.9,0.9C397.7,110.1,396.6,113.8,395.6,117.9L395.6,117.9z"/>
		<path d="M475.4,102.8h2c-0.2,2.2-0.7,4.5-1.3,6.6c2.3,2,5.2,0.3,7.8,0.9c2-2.2,1.4-5.1,2.9-7.4c0.4-0.3,1-0.1,1.6-0.1
			c0.3,0.2,0.5,0.6,0.3,1c-0.3,1.3-1,2.4-0.8,3.8c0.2,1.2-0.5,2.3-0.9,3.4c-0.4,1.3-0.1,2.8-0.7,3.8c-0.8,1.4-0.4,2.8-0.7,4.2
			c-1.2,0.9-1.2,0.9-2.8,0.8c0.4-2.5,1.4-5,1.5-7.9c-1.4,0-2.7-0.1-4-0.1s-2.7,0-4.2,0c-1.2,2.2-1.8,4.7-1.8,7.2
			c-1.2,0.9-1.2,0.9-3,0.7C473.1,114.2,473.6,108.3,475.4,102.8z"/>
		<path d="M504,102.8l2,0.1c-0.8,4.7-2,9.2-3.2,13.9c-1.1,1.4-2.4,2.5-4,3.3h-5.3c-3.6-2.3-3.5-2.4-2.7-7.2c0.3-1.6,0.3-3.3,0.6-5
			c0.5-1.6,0.8-3.3,1.1-5h1.8c0.1,0.1,0.3,0.4,0.3,0.5c-0.2,2-0.5,4-1,6c-0.6,1.7-0.3,3.5-1.2,5.1c-0.6,1.1,0.7,1.9,0.8,3
			c1.6,0.6,2.9,1.6,5,0.4c1.8-1,2.9-2.8,3.2-4.8c0.7-2.6,1.2-5.3,1.5-8C503.2,104.3,503.6,103.5,504,102.8z"/>
		<path d="M408.9,119.7c3.2-5.5,6.3-11,9.6-16.8c0.5-0.3,1.4,0,2.4-0.1c1.2,5.1,2,10.4,2.6,15.6c0.5,0.3,0.7,0.9,0.5,1.4
			c-0.5,0.6-1.1,0.1-1.7,0.3c-1.6-1.4-0.8-3.7-2.1-5.2h-5.5c-2,1.1-2.1,3.4-2.9,4.3C410.6,120.5,409.9,119.8,408.9,119.7z
			 M419.4,105.6c-1.6,2.4-3,5-4.1,7.7h4.9C421,110.6,419.6,108.3,419.4,105.6z"/>
		<path d="M426.9,102.9h2.1c0.9,4.7,1.9,9.5,2.8,14.4c2.5-5,5.5-9.3,7.5-14.4h2.5c0.3,0.2,0.2,0.3,0.1,0.6
			c-2.9,5.1-5.7,10.1-8.5,15.2c-0.2,0.4-0.4,0.9-0.6,1.3h-2.7C428.7,114.5,428,108.8,426.9,102.9z"/>
		<path d="M531,105h-5.3c-0.5-1.1,0.4-1.4,0.8-2h13c0.7,1-1.9,0.9,0,2.2h-5.3l-1,1c-0.3,4.7-2.4,9.1-2.5,13.9H528
			C529,115.2,529.9,110.3,531,105z"/>
		<path d="M374.5,113.1v6.8c-0.6,0.3-1.3,0.3-2,0.2v-7.3l-6.3-9.4c0.6-0.8,1.3-0.4,2-0.6c2.3,2.1,3.6,5.1,5.5,7.7
			c2.3-2.3,3.4-5.5,5.7-7.6c0.6,0,1.2-0.2,1.8,0.2c0.1,0.2,0.2,0.6,0.1,0.7c-2.1,2.5-4,5.3-5.6,8.1
			C375.4,112.3,375,112.7,374.5,113.1z"/>
		<path d="M443.5,120.1h-1.6c-0.1-0.2-0.4-0.3-0.4-0.5c0-0.8,0.1-1.7,0.3-2.5c0.9-2.6,1.5-5.4,1.9-8.1c0.2-2,1.5-3.8,0.7-6
			c1.1-0.3,2.2-0.3,3.3,0.2c-1.7,2.6-1.7,5.6-2.3,8.4S443.9,117.2,443.5,120.1z"/>
		<path d="M537.4,36.5c-1.9,0.7-2.9-0.3-4.2-0.7c-0.7-0.6,0.5-1.9-0.9-2.2l1.7-3.5l2.2-1c1.2-0.5,1.5,1.4,2.6,0.7
			c0.1,0.8,0.5,1.5,1,2.2C539.8,34.3,538.5,35.5,537.4,36.5z"/>
		<path class="st0" d="M41.8,118c-3.2-1.2-4.5-3.7-7-4.8c-1.7-3-5-4.9-6.2-8.3c-0.5-1.4-1.6-2.5-2.3-3.9c-2.2-4.1-3.8-8.5-4.5-13.2
			c-1.6-1.5,0.1-3.9-1.3-5.5c1.5-4.9-0.7-10.4,2-15.1c0.2-3.5,1.6-6.5,3.1-9.6c2.6-5.4,8.3-12.8,12.8-16c4.8-3.5,10.2-6.2,15.8-7.9
			c4.9-1.3,10-1.8,15.1-1.5c2.6,1.3,5.5,0.6,8.2,2c2.3,1.2,5,1.7,7.3,3c5.1,2.7,9.7,6.3,13.5,10.6c1.9,2.1,3.6,4.5,4.9,7.1
			C91,84.1,69.8,104.5,41.8,118z"/>
		<path class="st0" d="M89,31.6c-2.3-0.6-3.9-2.5-6.7-2.4c2.5-2.5,5.4-3.3,8.2-4.4c3.5-1.4,7.1-2.3,10.8-2.8
			c3.2-0.5,6.5-1.5,9.8-0.9c1.6,0.3,3.4,0.5,4.9,0.9c3.2,0.9,5.7,3.5,6.5,6.8c1,3.4,1.2,7,0.6,10.5c-1.2,6.4-2.3,12.9-5.6,18.7
			c-0.8,1.5-1.1,3.3-1.9,4.8c-3.6,6.6-7.7,12.9-12.1,19C99.8,86.5,96,91.1,92,95.5c-1.7,1.8-3.1,4.1-5.2,5.7c-2.1,1.7-4.1,3.5-6,5.4
			c-1.4,1.4-2.6,2.9-4.1,4.3c-1.5,1.4-3.1,2.7-4.8,3.8c-1.7,1.1-3.3,2.4-4.8,3.6c-4.9,3.8-10.2,7.2-15.7,10.1
			c-5.3,3-11,5.5-16.9,7.2c-1.7,0.5-3.4,1.2-5.2,1.1c-1-0.1-1.9,0.5-2.7,0.6c-4.9,0.4-9.8-0.8-13.9-3.4c-2.2-1.5-3.7-3.9-4.2-6.5
			c-0.7-2.7-1.5-5.5-0.9-8.3c0.9-4,1.7-8,2.7-12c1-4.3,3.7-7.8,5.2-11.8c0.1-0.3,0.5-0.5,0.8-0.7c0.7,2.3,1.3,4.5,2.2,6.7
			c0.5,1.2,0.5,2.6,0.1,3.8c-0.8,3.3-2.3,6.6-1.9,10.1c0.2,2.5,1,4.8,2.2,7c1,1.8,2.4,3.4,4.2,4.5c2.7,1.7,5.9,2.2,9,1.5
			c2.5-0.7,5-0.9,7.4-2.1c3.7-1.9,7.7-3,11.4-5.1c4.7-2.7,9.3-5.4,13.7-8.4c0.3-0.2,0.7-0.2,0.9-0.5c0.9-1.3,2.5-1.6,3.4-2.7
			c2.3-2.4,4.8-4.6,7.5-6.5c3.6-3,7-6.3,10.2-9.7c3.3-3.5,6.4-7.2,9.1-11.2c3.6-4.8,6.4-10.1,9.6-15.1c3.3-5.3,5-11.2,7.2-16.9
			c1.5-3.9,1.3-8.3,0.8-12.3c-0.4-2.9-2.5-5.3-5.2-7c-2.3-1.5-5-1.3-7.3-2.2c-2.7,1-5.6,0.6-8.3,1.8C91.3,30.8,90.1,31.2,89,31.6z"
			/>
		<path class="st0" d="M108.9,86.4c-0.2,4.8-1.9,9.2-3.9,13.3c-4.1,8.2-9.9,15.2-18.2,19.6c-5,2.7-10.1,5.3-16,5.3
			c-0.3-0.9-0.3-1.3,0.5-1.6c1.9-0.8,3.2-2.5,4.8-3.8c2-1.6,4-3.3,5.9-4.8c6-4.8,11.1-10.6,16.5-16c3.4-3.4,6.4-7.3,9.6-11
			C108.3,87.2,107.9,86.5,108.9,86.4z"/>
		<path class="st0" d="M106.2,47.3c-3.3-3.6-6-7.9-10.4-10.5c3-2,5.8-1.8,8.7-0.8c2.2,0.8,2.4,2.9,2.8,4.6c0.3,1.1,0.7,2.7-0.4,3.9
			C106.1,45.3,107.1,46.5,106.2,47.3z"/>
		<path class="st0" d="M27.5,121.5c-1.7-0.7-3.1-1.9-4.2-3.3c0.6-1.3-0.9-2.6-0.8-4.2s1.2-2.8,0.6-5.1c2.5,2.1,3.5,4.4,5.2,6.1
			s3.5,3.5,5.3,5.3c0.1,0.6-0.5,0.6-0.8,1.2L27.5,121.5z"/>
		<path class="st0" d="M154.7,82.8V57.5c0.3-0.7,1.3-0.3,1.8-1c1.6-2.3,4.4-3.2,6.7-4.7c3.4-2.1,7.1-1.9,10.7-0.7
			c4.2,1.4,7.6,6.3,7.8,10.8c0.1,1.6,1.1,2.9,0.9,4.6s0.1,3.3-0.1,4.9c-0.4,3.4-0.9,6.8-2.6,9.8c-2.1,3.6-6,7.2-10,7.5
			c-1,0.1-2,1-3.1,0.7c-2.4-0.7-5.1-1.2-7.2-2.4C157.5,86,155.9,84.6,154.7,82.8z"/>
		<path class="st0" d="M220.9,50.4c2.2,1,4.2,2.4,5.9,4.1c1.7,1.9,2.8,4.4,2.9,7c0.1,1.4-0.2,2.9,1.3,4.3h-27.4
			c-0.8-2.4,0.5-4.5,1.4-6.6s4.3-6.3,6.3-7.4C214.3,50.4,217.6,49.9,220.9,50.4z"/>
		<path class="st0" d="M443.7,68.6v13.7c-2.6,2.5-5.7,4.5-9.1,5.9c-4.4,1.7-8.7,2.2-13.2-2.7c-1-4.3-1-4.3-0.1-8.6
			c2-1.9,3.7-4.1,6.5-5c3.1-1.2,6.4-2.1,9.7-2.7C439.4,68.8,441.3,67.7,443.7,68.6z"/>
		<path class="st0" d="M318.3,62.7c1.4-1.7,1.5-4,2.9-5.7c2.3-2.6,4.2-5.5,8.1-6.3c2.8-0.8,5.7-0.6,8.3,0.6c0.7,0.2,1.4,0.4,2.1,0.5
			c1.5,2,3.6,3.5,5.1,5.7c1.1,1.7,1.8,3.5,2.3,5.5c0.9,3.4,2.2,6.9,0.4,10.4c0.3,2.9-1,5.3-2.3,7.7c-1.4,3.1-4,5.5-7.1,6.7
			c-5.1,2.1-10.5,1.4-14.3-2.3c-3.1-3.1-5.1-7.2-5.7-11.5c-0.4-2.2-1.1-4.4-0.5-6.4C318,66,318.2,64.4,318.3,62.7z"/>
		<path class="st0" d="M361.7,113.7v3.2l-0.9,0.9h-7.1v-5.2C356.3,113.2,359.1,110.5,361.7,113.7z"/>
		<path class="st0" d="M354.7,110.4l-1.1-1.1v-4.1h6.5l0.9,1.2v2.9C359.1,110.8,356.9,110.3,354.7,110.4z"/>
		<path class="st0" d="M560.3,105.1h6.8l1.1,1.1v2.3c-0.6,0.5-1.2,1.1-2,1.7h-7.6C559.5,108.6,559.3,106.8,560.3,105.1z"/>
		<path class="st0" d="M452.8,106.1l0.9-0.9h5.5l1.8,1.8v6c-0.9,0.4-1,1.4-1.2,2.1c-0.9,2.2-2.4,2.8-4.5,2.8h-4.7
			C451,113.8,452.6,110.1,452.8,106.1z"/>
		<path class="st0" d="M395.6,117.9c1.1-4.1,2.2-7.8,2.4-11.7l0.9-0.9h5.4c1.8,0.6,1.6,2.7,2.6,4c0.2,0.3-1,4.5-1.3,5.1
			c-1.1,2.6-3.9,4.1-6.7,3.6C397.8,117.8,396.7,117.8,395.6,117.9z"/>
		<path class="st0" d="M419.4,105.6c0.2,2.7,1.5,5,0.8,7.7h-4.9C416.4,110.6,417.8,108,419.4,105.6z"/>
	</g>
</g>
</svg>
