<svg xmlns="http://www.w3.org/2000/svg" viewBox="0 0 578.03 128.88"><defs><style>.cls-1{fill:#fff;}</style></defs><title>personaclix_pcdh_logo_light</title><g id="Layer_2" data-name="Layer 2"><g id="Layer_1-2" data-name="Layer 1"><g id="Layer_1-2-2" data-name="Layer 1-2"><path class="cls-1" d="M70.73,12.24c6.3-3.9,12.7-7.3,19.8-9.3,1.5-.4,2.9-.9,4.4-1.2,2.5-.6,5.1-.7,7.7-1.4,2.8-.9,12.7.1,15.5,1.5a15.82,15.82,0,0,1,6.4,5.9,18.57,18.57,0,0,1,3.1,10.7c-.1,1.7,0,3.5,0,5.3.1,4.6-1.3,8.9-2.5,13.2-1.3,4.7-3.5,9.1-5.3,13.5a68.93,68.93,0,0,1-3.9,7,6.46,6.46,0,0,0-1,4.1,24.09,24.09,0,0,1,0,3.8,72.54,72.54,0,0,1-3.2,16.7,44.08,44.08,0,0,1-6.8,13.3c-3,3.8-6,7.6-10.1,10.5-3.1,2.2-6,4.7-9.5,6.2a55.45,55.45,0,0,1-13.3,4.1c-4.4.7-8.8.4-13.2.5a6.86,6.86,0,0,0-3.7,1,76.51,76.51,0,0,1-19.3,8.8c-6.6,2-11.6,2.9-17.1,2.2-3.9-.6-7.8-1.5-10.9-4.4-1.4-1.3-3-2.2-4.1-3.9A19.43,19.43,0,0,1,0,108v-3c-.3-6.4,1.8-12.3,4.1-18.2a56.2,56.2,0,0,1,8.2-15.5c.9-1.2,1.9-2.7.5-4.6a4.71,4.71,0,0,1,0-4.6c.7-1.3.4-2.4.5-3.6a49.2,49.2,0,0,1,3.4-14.7,46.41,46.41,0,0,1,4.1-8c3.2-4.9,6.6-9.7,11.6-13.2a103.84,103.84,0,0,1,8.8-5.9c2.2-1.2,4.5-1.7,6.8-2.7s4.8-1.2,7.1-1.8c4.8-1.3,9.6-.2,14.4-.6C70.23,11.44,70.43,11.94,70.73,12.24Zm-30.6,91c28-13.5,49.2-33.9,61.6-63a34.54,34.54,0,0,0-4.9-7.1,43.89,43.89,0,0,0-13.6-10.6c-2.3-1.3-5-1.8-7.3-3-2.7-1.4-5.7-.7-8.2-2A47.92,47.92,0,0,0,52.63,19a50.38,50.38,0,0,0-15.9,7.9c-4.5,3.2-10.2,10.6-12.8,16-1.5,3-2.9,6.1-3.1,9.6-2.7,4.8-.5,10.2-2,15.1,1.4,1.6-.3,3.9,1.3,5.5a39,39,0,0,0,4.5,13.2c.7,1.4,1.8,2.5,2.3,3.9,1.3,3.3,4.5,5.3,6.2,8.3C35.63,99.44,36.93,102,40.13,103.24Zm47.2-86.4c1-.4,2.3-.8,3.4-1.3,2.6-1.2,5.6-.8,8.3-1.8,2.4.9,5.1.7,7.3,2.2,2.7,1.7,4.8,4.1,5.2,7,.5,4.1.7,8.4-.8,12.3-2.2,5.7-3.9,11.6-7.2,16.9-3.2,5-6,10.3-9.6,15.2a108.53,108.53,0,0,1-9.1,11.2,116.89,116.89,0,0,1-10.2,9.7,51.44,51.44,0,0,0-7.5,6.5c-.9,1.1-2.5,1.4-3.4,2.7-.2.3-.7.3-.9.5-4.5,3-9.1,5.7-13.8,8.4-3.7,2.1-7.7,3.2-11.4,5.1-2.3,1.2-4.9,1.4-7.4,2.1a12.32,12.32,0,0,1-9-1.5,12.09,12.09,0,0,1-4.2-4.5,19.1,19.1,0,0,1-2.2-7c-.4-3.5,1.1-6.8,1.9-10.1a5.52,5.52,0,0,0-.1-3.8c-.9-2.2-1.5-4.4-2.2-6.7-.3.3-.7.4-.8.7-1.6,4-4.2,7.4-5.2,11.8-1,4-1.8,8-2.7,12-.6,2.8.2,5.6.9,8.3a10.24,10.24,0,0,0,4.2,6.5,21.31,21.31,0,0,0,13.9,3.4c.8-.1,1.7-.7,2.7-.6a15.61,15.61,0,0,0,5.2-1.1,86.77,86.77,0,0,0,16.9-7.2,107.61,107.61,0,0,0,15.7-10.1c1.5-1.2,3.1-2.5,4.8-3.6a44.52,44.52,0,0,0,4.8-3.8c1.5-1.3,2.7-2.9,4.1-4.3a77,77,0,0,1,6-5.4c2-1.5,3.4-3.8,5.2-5.7a168.91,168.91,0,0,0,11.4-13.7,179.47,179.47,0,0,0,12.1-19c.8-1.5,1.1-3.3,1.9-4.8,3.3-5.8,4.4-12.3,5.6-18.7a23.3,23.3,0,0,0-.6-10.5,9.16,9.16,0,0,0-6.5-6.8c-1.5-.4-3.3-.6-4.9-.9-3.3-.5-6.6.5-9.8.9a45.21,45.21,0,0,0-10.8,2.8c-2.7,1.2-5.7,1.9-8.2,4.5C83.43,14.34,85,16.24,87.33,16.84Zm19.9,54.8c-1,.1-.6.8-.9,1.1-3.2,3.7-6.1,7.6-9.6,11-5.4,5.4-10.5,11.2-16.5,16-2,1.6-4,3.2-5.9,4.8-1.6,1.3-2.9,2.9-4.8,3.8-.8.4-.8.7-.5,1.6,5.9-.1,11-2.7,16-5.3,8.3-4.4,14.1-11.4,18.2-19.6C105.33,80.84,107.13,76.44,107.23,71.64Zm-2.7-39c.9-.9-.1-2.1.6-2.8,1.1-1.2.7-2.8.4-3.9-.5-1.7-.6-3.8-2.8-4.6-2.9-1-5.7-1.2-8.7.8C98.53,24.74,101.23,28.94,104.53,32.64Zm-78.7,74.1h5.4c.2-.5.9-.6.8-1.2l-5.3-5.3c-1.8-1.8-2.6-4-5.2-6.1.5,2.3-.5,3.6-.6,5.1s1.3,2.8.8,4.2A9.56,9.56,0,0,0,25.83,106.74Z"/><path class="cls-1" d="M147.13,31.14H153v4.6a12,12,0,0,0,3.4-1.7,20.2,20.2,0,0,1,16.5-3.2,14.78,14.78,0,0,1,6.4,2.8,19.06,19.06,0,0,1,6,8.8,25.66,25.66,0,0,1,1.6,9.1c-.1,2.1.1,4.3,0,6.4a24.84,24.84,0,0,1-6.2,15.1c-3.1,3.4-7,5.2-11.2,6.5a10.1,10.1,0,0,1-6.2.1c-2.8-1-6.1-1.3-8.1-4.1-.3-.5-1.2-.6-2.1-1v24.7c-1.9.2-3.8,0-5.9.1Zm5.9,37a12.44,12.44,0,0,0,4.8,4c2.2,1.2,4.8,1.7,7.2,2.4,1.1.3,2.1-.6,3.1-.7,4-.3,7.9-4,10-7.5,1.8-3,2.2-6.4,2.6-9.8.2-1.6-.2-3.3.1-4.9s-.8-3-.9-4.6c-.2-4.6-3.6-9.4-7.8-10.8-3.6-1.2-7.2-1.4-10.7.7-2.3,1.4-5,2.3-6.7,4.7-.5.7-1.5.3-1.8,1Z"/><path class="cls-1" d="M234.13,56.54H202c-.7,3.6.5,6.5,1.9,9.6a15.7,15.7,0,0,0,6.6,6.9c1.9,1,4.3,1.2,6.4,1.6s4.5-.6,6.6-1.2a13.13,13.13,0,0,0,6.4-3.3l2.6,4.1c-2.4,2.7-5.8,3.7-9,4.7a10.08,10.08,0,0,1-3.4.9c-1.4,0-2.8.1-4.1,0-5.3-.6-10.2-2.3-13.9-6.2a20.52,20.52,0,0,1-5.5-9.7c-.4-1.5-1.1-2.9-.8-4.6a4,4,0,0,0-.5-2.4,4.45,4.45,0,0,1,0-3.9,4,4,0,0,0,.5-2.4c-.1-3.8,1.4-7.2,3.2-10.3a20.53,20.53,0,0,1,9.1-8.4,20.22,20.22,0,0,1,5.3-1.6,20.83,20.83,0,0,1,11,1.5,18.19,18.19,0,0,1,8.2,9.1C234.83,45.94,233.83,51.24,234.13,56.54Zm-14.9-20.9a15.82,15.82,0,0,0-9.6,1.5c-2,1.1-5.4,5.1-6.3,7.4s-2.1,4.3-1.4,6.6h27.4c-1.6-1.4-1.2-2.9-1.3-4.3a10.75,10.75,0,0,0-2.9-7A16,16,0,0,0,219.23,35.64Z"/><path class="cls-1" d="M442.13,48.54c-.2-6-1.5-10.7-7.6-13-6-.8-11.4,1.7-16.5,5.2-2-.5-1.3-3.1-3.8-3.5a27.83,27.83,0,0,1,9.2-5.5,24.89,24.89,0,0,1,12.1-1.5c6.3.7,10.9,5.9,11.8,12s.4,11.8.6,17.7,0,12,0,18.2h-5.2a7.3,7.3,0,0,0-1.1-4.3c-2,1.2-3.9,2.5-6,3.6-5.7,2.9-11.5,3.3-17.2.1-.5-.3-.8-1-1.5-.7-.7-.4-.4-1.3-1-1.8-2.4-2.1-3.1-5-3.1-8.1a18.75,18.75,0,0,1,.1-4.1,13.53,13.53,0,0,1,5.9-7.8,32.73,32.73,0,0,1,11.7-4.5c2.9-.7,5.7-1.7,8.8-1.5C439.93,49,440.73,47.94,442.13,48.54Zm-.1,5.3c-2.3-.8-4.2.2-6.2.5a53.62,53.62,0,0,0-9.7,2.7c-2.8,1-4.5,3.2-6.5,5-.8,4.3-.8,4.3.1,8.6,4.6,4.9,8.8,4.4,13.2,2.7a30.32,30.32,0,0,0,9.1-5.9Z"/><path class="cls-1" d="M351.83,46.54c0,2.7,1.3,5.5.9,8.5a34.33,34.33,0,0,1-2.3,11.1,21.71,21.71,0,0,1-7.7,10,18.63,18.63,0,0,1-13.1,3.6,19.92,19.92,0,0,1-11.8-5,24.73,24.73,0,0,1-7-11.7,26.56,26.56,0,0,1-.9-11.2c.6-3.1.7-6.4,2.3-9.2,2.8-4.9,6.3-8.9,11.7-11.2,1.2-.5,2.8.4,3.7-1.1,6.4-.3,12.5.4,17.3,5.4,1.2,1.3,2.7,2.4,3.6,4.1.7,1.3,1.9,2.4,2,4.1C350.53,44.74,351.33,45.54,351.83,46.54Zm-35.2,1.4a41,41,0,0,1-.6,4.9c-.6,2,.1,4.3.5,6.4a20,20,0,0,0,5.7,11.5c3.8,3.7,9.3,4.4,14.3,2.3a13.67,13.67,0,0,0,7.1-6.7c1.2-2.4,2.5-4.8,2.3-7.7,1.8-3.6.5-7-.4-10.5a16.52,16.52,0,0,0-2.3-5.5c-1.5-2.2-3.6-3.7-5.1-5.7a16,16,0,0,1-2.1-.5,13.14,13.14,0,0,0-8.3-.6c-3.9.8-5.8,3.6-8.1,6.3C318.23,43.94,318.13,46.24,316.63,47.94Z"/><path class="cls-1" d="M364.83,31.14h5v4c1,.4.6,1.4,1.2,1.9a22.44,22.44,0,0,1,10.1-6.4c5.7-1.8,13,.3,16.3,5.1a9.33,9.33,0,0,1,1.2,3.3,20.93,20.93,0,0,1,1.3,6.6v32.6h-6V75c0-9.1-.1-18.3,0-27.4.1-4.5-1-8.4-5.1-11.3-1,.5-1.8-.8-3.1-.8a16,16,0,0,0-9.9,3.3,47.84,47.84,0,0,0-5.4,4.7v34.7h-5.8Z"/><path class="cls-1" d="M303.13,62.34v7.3c-1,.9-1.2,2.3-1.8,3.4-1.9,3.4-5.3,4.8-8.7,6-5.1,1.7-10.2.8-15-1.2-2.9-1.2-5.9-2.6-8.2-5.2,1.5-1,1.6-3,3.4-4,1.5.1,2.5,1.5,3.6,2.3a15.65,15.65,0,0,0,5,2.5,22.9,22.9,0,0,0,5.9,1.2c4.2-.2,7.7-1.5,9.7-5.8v-4.3c-2.1-4.6-6.6-6.2-11-7.9-2.9-1.1-6-1.7-8.6-3.7-2-1.6-4-3.3-5.1-5.7a10.52,10.52,0,0,1,1.2-10.8c2.8-4.1,7.1-5.8,12.1-6a19.43,19.43,0,0,1,9.5,1.5c.3.2.9,0,1,.2.7.9,1.8,1.1,2.6,1.8.6.5,1.1,1.3,2.3,1a8.84,8.84,0,0,1-3,4.6l-7.5-3.8c-4.4-.4-8.9-.3-12.1,4.2a2.2,2.2,0,0,1-.1.8c-.3,1.2-1.3,2.4-.6,3.8a8,8,0,0,0,3.5,4c3.4,1.7,6.9,3.2,10.5,4.6,3.2,1.2,6.4,2.4,8.8,5.1C301.63,59.24,302,60.94,303.13,62.34Z"/><path class="cls-1" d="M268.53,31.14c.1,1.9-1.3,3.2-.5,5.3-1.7-.5-3.1.4-4.5-.8-1-.8-2,.5-3,.8-5.1,1.1-7.1,5.4-9.2,9.5-.4.7,0,1.7,0,2.6v29.7h-6.7V32l1-1h4.6c.6,1.9,0,3.8.4,6,2.2-1.4,3.5-3.6,5.8-4.9,3.4-1.9,6.4-2.5,10.2-1.2A6.15,6.15,0,0,0,268.53,31.14Z"/><path class="cls-1" d="M556.33,57.84a14.44,14.44,0,0,0-4.6,4.6,11.51,11.51,0,0,1-1.4,1.7,105.87,105.87,0,0,0-9.8,11.3,17.24,17.24,0,0,1-2.7,2.7h-4.5c3.4-3,5.9-6.4,8.6-9.5l11.8-13.3a8.63,8.63,0,0,0-.4-2.8c-1.2-3.9-3.2-7.4-4.6-11.2a41.27,41.27,0,0,0-3.5-7.7,11.89,11.89,0,0,1,4.2-.2l7.8,18.9c6-6.1,11.1-12.7,16.5-18.8H578l-18.9,22,9.4,22.5c-1.4.6-2.6.3-3.9.3C561.83,71.54,559.33,64.64,556.33,57.84Z"/><path class="cls-1" d="M485.83,71.64l1.9,1.9V75c-1.2.8-2.6,1-3.7,2.1s-2.5,1.2-3.8,1.6c-5,1.7-9.9,1.7-14.8-1a14.15,14.15,0,0,1-4.7-4.4,16.54,16.54,0,0,1-2.9-8.9c-.2-2.5-.9-5.2.6-7.6-.6-3.4,1.5-6.1,2.3-9.2a13.4,13.4,0,0,1,2.2-3.6c3.7-5.7,6.1-7.6,11.2-10.2a19.37,19.37,0,0,1,7-2,14.7,14.7,0,0,1,12.2,5.2l-2.5,2.5c.2.6.1.5-.1.2-4.3-4.3-6-5-11.8-4.1a15.24,15.24,0,0,0-7.7,4.1,19.44,19.44,0,0,0-4.8,5.5c-1.5,2.9-2.9,5.8-4.2,8.8-.2.5,0,1.2-.1,1.8-.2,1.2.2,2.3-.6,3.5a4.16,4.16,0,0,0,.2,3.9,3.78,3.78,0,0,1,.4,2.1c.6,5.7,2.5,8.1,7.7,10.6a1.42,1.42,0,0,0,.6.2C476.23,76.54,481.63,76,485.83,71.64Z"/><path class="cls-1" d="M511.93,10h3.7a16.13,16.13,0,0,1-.7,5.3c-.8,2.1-.8,4.4-1.2,6.6s-.7,4.5-1.3,6.6c-1.3,5.2-1.7,10.6-3.5,15.8a23.41,23.41,0,0,0-.8,5.3c-.1,1.8-1.3,3.4-.9,5.3-1.6,1.3.1,3.7-1.5,5a14.69,14.69,0,0,1-.7,4.6,56.75,56.75,0,0,1-1.5,6.9c-.4,1.3-.1,2.9-.1,4.4.9.6,1.8.2,2.9.3.2,1.3.7,2.5-1,3.6h-3.8c-1.2-1.1-2.8-2.3-2.5-4.5a19.53,19.53,0,0,1,1-4.8c.7-1.7-.1-3.7,1.2-5.1-.5-1.7,1-3,.8-4.6s1-2.7.8-4.2,1.2-2.9.7-4.6c1.5-1.5,0-3.9,1.5-5.4-.5-2,.8-3.7.9-5.7.1-1.3.6-2.8.6-4.2,1.7-1.1.1-3,1.2-4.4.9-1.1-.4-3,1-4-.5-3.4,1.3-6.5,1.6-9.8C510.73,15.64,511.83,12.94,511.93,10Z"/><path class="cls-1" d="M529.83,33.34h3.9c-1.9,4.1-1.3,8.7-3.2,12.6.1,3-.8,5.9-1.5,8.7-.9,3.3-.8,6.7-2.2,10-.6,1.4-.3,3-.7,4.6-.4,2.3-1,4.6-1.6,6.8a6.05,6.05,0,0,0,0,1.9c-1.2.6-2.4.1-3.6.3-.8-3.4,1-6.3,1.5-9.2a46.3,46.3,0,0,1,1.8-9,46.3,46.3,0,0,0,1.8-9,91.25,91.25,0,0,1,1.7-9.1C528.43,38.94,528.43,36,529.83,33.34Z"/><path class="cls-1" d="M349.73,88.14h8.4c1.1.7,2.5,1.2,3.4,2.7v3.7l-1.4,1.4c1.2,1.3,2.7,2.4,3,4.4-.4,2.3-1.9,3.9-4.5,4.9h-8.9ZM360,98.94c-2.6-3.2-5.4-.5-8-1.1V103h7.1l.9-.9Zm-7-3.3c2.1-.1,4.4.4,6.3-1.1v-2.9l-.9-1.2h-6.5v4.1Z"/><path class="cls-1" d="M563.63,98.24a10.65,10.65,0,0,1,3.8,6.7c-.7.6-1.3.3-1.9.3-1.5-2.5-2.1-5.6-4.5-7.5h-3.7l-1,1c-.1,1.1.2,2.5-.4,3.2-.8,1,0,2.2-.8,3.2h-2c.3-5.8,2.3-11.3,3.2-17.1h10l2.5,1.5v5l-2.5,2.5A2.56,2.56,0,0,0,563.63,98.24Zm-5-7.9c-1.1,1.7-.9,3.5-1.7,5.2h7.6c.8-.7,1.4-1.2,2-1.7v-2.3l-1.1-1.1Z"/><path class="cls-1" d="M455,105.24h-9c1.3-5.7,2.1-11.5,3.8-17.1h7.6c1.6.5,2.7,2,4,3.2-.2,1.8,2.1,3.5.1,5.3.5,2.1-.9,3.7-1.7,5.3S456.83,104.14,455,105.24Zm-3.9-13.9c-.1,4-1.8,7.7-2.3,11.7h4.7c2.1,0,3.6-.6,4.5-2.8.3-.7.3-1.7,1.2-2.1v-6l-1.8-1.8h-5.5Z"/><path class="cls-1" d="M519.43,88.14h2.2c-.6,5.8-2.5,11.3-3.3,17.1h-2.6l-5.9-13.8-2.8,13.8h-1.8c-.9-3,1.1-5.7,1.4-8.6a82.76,82.76,0,0,1,1.6-8.4c.7-.5,1.6-.1,2.4-.2l6.2,14.3C517.43,97,518.53,92.64,519.43,88.14Z"/><path class="cls-1" d="M550,103.14v2.1h-13.4c1.2-5.7,2.4-11.3,3.7-17h11.9c.6.5-.1,1.2.4,2h-10.7c.6,1.9-.9,3.2-.7,5.2a27.9,27.9,0,0,0,5,.2h4.6c.3,1.3-.5,1.7-1.1,2.3h-9.5c.8,1.9-.9,3.2-.5,5.2Z"/><path class="cls-1" d="M394.93,88.24h7.2c2.2.6,3.3,2,4.6,3.3a4.85,4.85,0,0,0,0,1.7c2,3.6-.5,6.4-2,9.1-1.1,2.1-3.6,3-6.1,3.1-2.2.1-4.5,0-7,0C391.93,99.44,393.93,93.94,394.93,88.24Zm-1,14.9a18.19,18.19,0,0,1,3.3,0,6.12,6.12,0,0,0,6.7-3.6c.3-.5,1.5-4.8,1.3-5.1-1-1.3-.8-3.4-2.6-4h-5.4l-.9.9c-.3,4-1.4,7.7-2.4,11.8Z"/><path class="cls-1" d="M473.73,88h2a36.71,36.71,0,0,1-1.3,6.6c2.3,2,5.2.3,7.8.9,2-2.2,1.4-5.1,2.9-7.4.4-.3,1-.1,1.6-.1a.78.78,0,0,1,.3,1c-.3,1.3-1,2.4-.8,3.8.2,1.2-.5,2.3-.9,3.4-.4,1.3-.1,2.8-.7,3.8-.8,1.4-.4,2.8-.7,4.2-1.2.9-1.2.9-2.8.8.4-2.5,1.4-5,1.5-7.9-1.4,0-2.7-.1-4-.1h-4.2a15.08,15.08,0,0,0-1.8,7.2c-1.2.9-1.2.9-3,.7C471.43,99.44,471.93,93.54,473.73,88Z"/><path class="cls-1" d="M502.33,88l2,.1c-.8,4.7-2,9.2-3.2,13.9a11.62,11.62,0,0,1-4,3.3h-5.3c-3.6-2.3-3.5-2.4-2.7-7.2.3-1.6.3-3.3.6-5a40.33,40.33,0,0,0,1.1-5h1.8a1.33,1.33,0,0,1,.3.5,41.73,41.73,0,0,1-1,6c-.6,1.7-.3,3.5-1.2,5.1-.6,1.1.7,1.9.8,3,1.6.6,2.9,1.6,5,.4a6.49,6.49,0,0,0,3.2-4.8,53.73,53.73,0,0,0,1.5-8A16.27,16.27,0,0,1,502.33,88Z"/><path class="cls-1" d="M407.23,104.94c3.2-5.5,6.3-11,9.6-16.8.5-.3,1.4,0,2.4-.1a137.18,137.18,0,0,1,2.6,15.6,1.15,1.15,0,0,1,.5,1.4c-.5.6-1.1.1-1.7.3-1.6-1.4-.8-3.7-2.1-5.2H413c-2,1.1-2.1,3.4-2.9,4.3C408.93,105.74,408.23,105,407.23,104.94Zm10.5-14.1a43.67,43.67,0,0,0-4.1,7.7h4.9C419.33,95.84,417.93,93.54,417.73,90.84Z"/><path class="cls-1" d="M425.23,88.14h2.1c.9,4.7,1.9,9.5,2.8,14.4,2.5-5,5.5-9.3,7.5-14.4h2.5c.3.2.2.3.1.6-2.9,5.1-5.7,10.1-8.5,15.2-.2.4-.4.9-.6,1.3h-2.7C427,99.74,426.33,94,425.23,88.14Z"/><path class="cls-1" d="M529.33,90.24H524c-.5-1.1.4-1.4.8-2h13c.7,1-1.9.9,0,2.2h-5.3l-1,1c-.3,4.7-2.4,9.1-2.5,13.9h-2.7C527.33,100.44,528.23,95.54,529.33,90.24Z"/><path class="cls-1" d="M372.83,98.34v6.8a3.38,3.38,0,0,1-2,.2V98l-6.3-9.4c.6-.8,1.3-.4,2-.6,2.3,2.1,3.6,5.1,5.5,7.7,2.3-2.3,3.4-5.5,5.7-7.6.6,0,1.2-.2,1.8.2.1.2.2.6.1.7a55.66,55.66,0,0,0-5.6,8.1A6.79,6.79,0,0,1,372.83,98.34Z"/><path class="cls-1" d="M441.83,105.34h-1.6c-.1-.2-.4-.3-.4-.5a10.68,10.68,0,0,1,.3-2.5,45.37,45.37,0,0,0,1.9-8.1c.2-2,1.5-3.8.7-6a4.71,4.71,0,0,1,3.3.2c-1.7,2.6-1.7,5.6-2.3,8.4S442.23,102.44,441.83,105.34Z"/><path class="cls-1" d="M535.73,21.74c-1.9.7-2.9-.3-4.2-.7-.7-.6.5-1.9-.9-2.2l1.7-3.5,2.2-1c1.2-.5,1.5,1.4,2.6.7a4.87,4.87,0,0,0,1,2.2A5.73,5.73,0,0,1,535.73,21.74Z"/></g></g></g></svg>